# xmcd
#
# Track frame offsets:
#	180
#	21632
#	35134
#	54044
#	65625
#	86814
#	103717
#	120147
#	139737
#	159360
#	173085
#	196718
#	221153
#	240730
#
# Disc length: 3449 seconds
#
# Revision: 3
# Processed by: cddbd v1.5.1PL2 Copyright (c) Steve Scherf et al.
# Submitted via: audiograbber 1.83.01
#
DISCID=bf0d770e
DTITLE=Badi Assad - Solo
DYEAR=1994
DGENRE=Jazz
TTITLE0=Num Pagode Em Planaltina
TTITLE1=Preludio E Toccatina
TTITLE2=A Bela E A Fera
TTITLE3=Valseana
TTITLE4=Tamoimoe
TTITLE5=When The Fire Burns Low
TTITLE6=Fuoco (Libra Sonatine)
TTITLE7=Joana Francesa
TTITLE8=Vrap
TTITLE9=Palhaco
TTITLE10=Rua Harmonia
TTITLE11=Estudo #1 - Assum Preto
TTITLE12=Homenagem A Radames Gnattalli
TTITLE13=Drume Negrita
EXTD=
EXTT0=
EXTT1=
EXTT2=
EXTT3=
EXTT4=
EXTT5=
EXTT6=
EXTT7=
EXTT8=
EXTT9=
EXTT10=
EXTT11=
EXTT12=
EXTT13=
PLAYORDER=
